<svg xmlns="http://www.w3.org/2000/svg" viewBox="0 0 2588.7 600"><defs><style>.cls-1{fill:#0053d6;}</style></defs><g id="Layer_2" data-name="Layer 2"><g id="Layer_1-2" data-name="Layer 1"><g id="Layer_2-2" data-name="Layer 2"><g id="Layer_1-2-2" data-name="Layer 1-2"><path class="cls-1" d="M303.4,0C175.5,0,99,105.8,107.2,209.3c3.7,46.8,26.7,92.1,64.7,127.5a212.52,212.52,0,0,0,45.2,32.5,108.57,108.57,0,0,1-23.8-51.8c-8.5-52,25.8-128.5,113.5-128.5,94.3,0,198.2,89.7,206.9,199.9,5.4,67.5-20.2,128.2-63.4,170.6C539.9,507.6,600,410.9,600,300c0-119.9-70.4-223.4-172.1-271.5C390.4,10.8,345.8,0,303.4,0Z"/><path class="cls-1" d="M296.6,600C424.5,600,501,494.1,492.8,390.7c-3.7-46.8-26.7-92.1-64.7-127.5a212.52,212.52,0,0,0-45.2-32.5,108.57,108.57,0,0,1,23.8,51.8c8.5,52-25.8,128.5-113.5,128.5C198.9,411,95,321.3,86.3,211.1A213.51,213.51,0,0,1,149.7,40.5,299.25,299.25,0,0,0,0,300C0,419.9,70.4,523.4,172.1,571.5,209.6,589.2,254.2,600,296.6,600Z"/><path class="cls-1" d="M750,150h95.6c105.4,0,153.8,57.9,153.8,150.4C999.4,392.5,951,450,845.6,450H750Zm94.3,264c83.1,0,111.8-42.9,111.8-113.6,0-71.1-28.7-114.9-111.8-114.9H792.4V414Z"/><path class="cls-1" d="M1227.6,353.6H1060.9c2.6,43.3,31.7,66.4,64.7,66.4,26.6,0,45.4-13.7,54-34.7H1222c-11.6,39.9-46.3,69.9-96.4,69.9-62.6,0-106.3-44.1-106.3-110.6,0-67.3,43.3-112.3,106.7-112.3,62.6,0,102,46.3,102,101.1C1228,339.4,1228,345.9,1227.6,353.6Zm-41.6-30c-1.7-34.7-27-56.1-60.4-56.1-31.7,0-59.1,19.3-63.8,56.1Z"/><path class="cls-1" d="M1458.6,353.6H1291.9c2.6,43.3,31.7,66.4,64.7,66.4,26.6,0,45.4-13.7,54-34.7H1453c-11.6,39.9-46.3,69.9-96.4,69.9-62.6,0-106.3-44.1-106.3-110.6,0-67.3,43.3-112.3,106.7-112.3,62.6,0,102,46.3,102,101.1C1459,339.4,1459,345.9,1458.6,353.6Zm-41.6-30c-1.7-34.7-27-56.1-60.4-56.1-31.7,0-59.1,19.3-63.9,56.1Z"/><path class="cls-1" d="M1484.3,237.4h38.1l4.3,33.9c13.3-20.6,37.3-39,75.4-39,62.1,0,105,47.6,105,111.9s-42.9,111-105.4,111c-33.8,0-60.4-14.1-75-38.6V544.3h-42.4Zm179.6,106.3c0-44.1-28.3-74.6-68.6-74.6-39.9,0-68.6,30.4-68.6,74.6,0,44.6,28.7,74.6,68.6,74.6C1635.6,418.3,1663.9,388.3,1663.9,343.7Z"/><path class="cls-1" d="M2037.9,150V450h-42.4V224.1l-94.3,183h-32.6l-94.7-183V450h-42.4V150h49.7l103.7,202.7L1988.2,150Z"/><path class="cls-1" d="M2064,168c0-15.4,12-26.6,27.9-26.6,16.3,0,28.3,11.1,28.3,26.6s-12,27-28.3,27C2076,195,2064,183.4,2064,168Zm6.9,69.4h42.4V450h-42.4Z"/><path class="cls-1" d="M2342.6,327.4V450h-42V331.7c0-42-17.6-63-51.9-63-34.7,0-60,25.3-60,71.6V450h-42.4V237.4H2184l3,37.3c13.7-26.1,40.3-42.4,73.3-42.4C2311.3,232.3,2342.6,263.6,2342.6,327.4Z"/><path class="cls-1" d="M2365.9,342.3c0-64.3,42.4-111,105-111,34.3,0,60.9,14.1,75.4,38.6V140.5h42.4V449h-38.1l-4.3-33.9c-13.7,20.6-37.7,39-75.9,39C2408.4,454.2,2365.9,406.6,2365.9,342.3Zm180,.5c0-44.6-28.3-74.6-68.6-74.6-39.9,0-68.6,30-68.6,74.6,0,44.1,28.7,74.6,68.6,74.6C2517.6,417.3,2545.9,386.9,2545.9,342.8Z"/><path class="cls-1" d="M750,150h95.6c105.4,0,153.8,57.9,153.8,150.4C999.4,392.5,951,450,845.6,450H750Zm94.3,264c83.1,0,111.8-42.9,111.8-113.6,0-71.1-28.7-114.9-111.8-114.9H792.4V414Z"/><path class="cls-1" d="M1227.6,353.6H1060.9c2.6,43.3,31.7,66.4,64.7,66.4,26.6,0,45.4-13.7,54-34.7H1222c-11.6,39.9-46.3,69.9-96.4,69.9-62.6,0-106.3-44.1-106.3-110.6,0-67.3,43.3-112.3,106.7-112.3,62.6,0,102,46.3,102,101.1C1228,339.4,1228,345.9,1227.6,353.6Zm-41.6-30c-1.7-34.7-27-56.1-60.4-56.1-31.7,0-59.1,19.3-63.8,56.1Z"/><path class="cls-1" d="M1458.6,353.6H1291.9c2.6,43.3,31.7,66.4,64.7,66.4,26.6,0,45.4-13.7,54-34.7H1453c-11.6,39.9-46.3,69.9-96.4,69.9-62.6,0-106.3-44.1-106.3-110.6,0-67.3,43.3-112.3,106.7-112.3,62.6,0,102,46.3,102,101.1C1459,339.4,1459,345.9,1458.6,353.6Zm-41.6-30c-1.7-34.7-27-56.1-60.4-56.1-31.7,0-59.1,19.3-63.9,56.1Z"/><path class="cls-1" d="M1484.3,237.4h38.1l4.3,33.9c13.3-20.6,37.3-39,75.4-39,62.1,0,105,47.6,105,111.9s-42.9,111-105.4,111c-33.8,0-60.4-14.1-75-38.6V544.3h-42.4Zm179.6,106.3c0-44.1-28.3-74.6-68.6-74.6-39.9,0-68.6,30.4-68.6,74.6,0,44.6,28.7,74.6,68.6,74.6C1635.6,418.3,1663.9,388.3,1663.9,343.7Z"/><path class="cls-1" d="M2037.9,150V450h-42.4V224.1l-94.3,183h-32.6l-94.7-183V450h-42.4V150h49.7l103.7,202.7L1988.2,150Z"/><path class="cls-1" d="M2064,168c0-15.4,12-26.6,27.9-26.6,16.3,0,28.3,11.1,28.3,26.6s-12,27-28.3,27C2076,195,2064,183.4,2064,168Zm6.9,69.4h42.4V450h-42.4Z"/><path class="cls-1" d="M2342.6,327.4V450h-42V331.7c0-42-17.6-63-51.9-63-34.7,0-60,25.3-60,71.6V450h-42.4V237.4H2184l3,37.3c13.7-26.1,40.3-42.4,73.3-42.4C2311.3,232.3,2342.6,263.6,2342.6,327.4Z"/><path class="cls-1" d="M2365.9,342.3c0-64.3,42.4-111,105-111,34.3,0,60.9,14.1,75.4,38.6V140.5h42.4V449h-38.1l-4.3-33.9c-13.7,20.6-37.7,39-75.9,39C2408.4,454.2,2365.9,406.6,2365.9,342.3Zm180,.5c0-44.6-28.3-74.6-68.6-74.6-39.9,0-68.6,30-68.6,74.6,0,44.1,28.7,74.6,68.6,74.6C2517.6,417.3,2545.9,386.9,2545.9,342.8Z"/></g></g></g></g></svg>